<svg xmlns="http://www.w3.org/2000/svg" xmlns:xlink="http://www.w3.org/1999/xlink" width="303.963" height="224.064" viewBox="0 0 227.972 168.048"><defs><symbol overflow="visible" id="a"><path d="M2.25-6.031c0-.36.016-.469.813-.469h.25v-.313c-.344.032-1.126.032-1.516.032-.375 0-1.172 0-1.516-.032v.313h.25c.797 0 .828.11.828.469v5.25c0 .36-.03.469-.828.469h-.25V0c.344-.031 1.14-.031 1.516-.031.39 0 1.172 0 1.516.031v-.313h-.25c-.797 0-.813-.109-.813-.468zm0 0"/></symbol><symbol overflow="visible" id="b"><path d="M1.094-3.422V-.75c0 .438-.11.438-.782.438V0c.36-.016.86-.031 1.141-.031.25 0 .766.015 1.11.031v-.313c-.672 0-.782 0-.782-.437v-1.844c0-1.031.719-1.594 1.344-1.594.64 0 .75.532.75 1.11V-.75c0 .438-.11.438-.781.438V0c.344-.016.86-.031 1.125-.031.25 0 .781.015 1.11.031v-.313c-.516 0-.766 0-.766-.296v-1.907c0-.859 0-1.156-.313-1.515-.14-.172-.469-.375-1.047-.375-.734 0-1.203.422-1.484 1.047v-1.047l-1.407.11v.312c.704 0 .782.062.782.562zm0 0"/></symbol><symbol overflow="visible" id="c"><path d="M3.297-3.984c.453 0 .515.125.515.53V-.75c0 .438-.109.438-.765.438V0c.328-.016.844-.031 1.094-.031.25 0 .75.015 1.109.031v-.313c-.672 0-.781 0-.781-.437v-3.672l-1.25.094c-.156.016-.172.016-.172.016-.031.015-.047.015-.188.015H1.688v-1.125c0-.984.859-1.39 1.468-1.39.297 0 .656.109.86.328-.407.03-.47.296-.47.468 0 .329.267.454.454.454.234 0 .453-.157.453-.454 0-.593-.547-1.015-1.281-1.015-.922 0-2.11.515-2.11 1.593v1.141H.266v.313h.796V-.75c0 .438-.109.438-.78.438V0c.327-.016.859-.031 1.109-.031S2.125-.016 2.5 0v-.313c-.672 0-.781 0-.781-.437v-3.234zm0 0"/></symbol><symbol overflow="visible" id="d"><path d="M2.86-2.344c.296-.375.671-.86.921-1.125.313-.36.719-.515 1.188-.515v-.313c-.266.016-.563.031-.828.031-.297 0-.829-.015-.954-.03v.312c.22.015.297.14.297.312 0 .156-.109.281-.156.344l-.61.781-.78-1.015c-.094-.094-.094-.11-.094-.172 0-.157.156-.25.343-.25v-.313c-.25.016-.906.031-1.078.031-.203 0-.671-.015-.937-.03v.312c.703 0 .703 0 1.172.609l.984 1.281-.937 1.188a1.566 1.566 0 0 1-1.266.594V0c.25-.016.563-.031.828-.031.281 0 .703.015.938.031v-.313c-.22-.03-.282-.156-.282-.312 0-.219.282-.547.891-1.266l.766 1c.078.11.203.266.203.329 0 .093-.094.25-.36.25V0c.297-.016.86-.031 1.079-.031.265 0 .656.015.953.031v-.313c-.532 0-.72-.015-.938-.312zm0 0"/></symbol><symbol overflow="visible" id="e"><path d="M1.36-.781c0 .36-.032.469-.798.469H.329V0h5.75L6.5-2.578h-.25C6-1.031 5.766-.313 4.062-.313H2.734c-.468 0-.484-.062-.484-.39v-2.672h.89c.97 0 1.079.328 1.079 1.172h.25v-2.64h-.25c0 .859-.11 1.171-1.078 1.171H2.25v-2.406c0-.328.016-.39.484-.39h1.282c1.53 0 1.796.546 1.953 1.937h.25l-.282-2.25H.329v.312h.234c.766 0 .797.11.797.469zm0 0"/></symbol><symbol overflow="visible" id="f"><path d="M1.719-3.75v-.656l-1.438.11v.312c.703 0 .781.062.781.5v4.656c0 .453-.109.453-.78.453v.313c.343-.016.859-.032 1.109-.032.28 0 .78.016 1.125.032v-.313c-.657 0-.766 0-.766-.453V-.594c.047.172.469.703 1.219.703 1.187 0 2.219-.984 2.219-2.265 0-1.266-.954-2.25-2.079-2.25-.78 0-1.203.437-1.39.656zm.031 2.61v-2.22c.281-.515.766-.796 1.281-.796.735 0 1.328.875 1.328 2C4.36-.953 3.672-.11 2.938-.11c-.407 0-.782-.204-1.047-.61-.141-.203-.141-.219-.141-.422zm0 0"/></symbol><symbol overflow="visible" id="g"><path d="M1.672-3.313v-1.093l-1.39.11v.312c.702 0 .78.062.78.562V-.75c0 .438-.109.438-.78.438V0c.39-.016.859-.031 1.14-.031.39 0 .86 0 1.266.031v-.313h-.22c-.734 0-.75-.109-.75-.468v-1.531c0-.985.423-1.876 1.173-1.876.062 0 .093 0 .109.016-.031 0-.234.125-.234.39 0 .266.218.423.437.423a.421.421 0 0 0 .422-.438c0-.312-.313-.61-.734-.61-.735 0-1.094.673-1.22 1.095zm0 0"/></symbol><symbol overflow="visible" id="h"><path d="M3.297 2.39c0-.03 0-.046-.172-.218C1.891.922 1.562-.968 1.562-2.5c0-1.734.375-3.469 1.61-4.703.125-.125.125-.14.125-.172 0-.078-.031-.11-.094-.11-.11 0-1 .688-1.594 1.954C1.11-4.438.984-3.328.984-2.5c0 .781.11 1.984.657 3.125C2.25 1.844 3.094 2.5 3.203 2.5c.063 0 .094-.031.094-.11zm0 0"/></symbol><symbol overflow="visible" id="i"><path d="M2.406-6.594c-.094-.218-.125-.218-.36-.218H.376v.312h.234c.766 0 .782.11.782.469v4.984c0 .266 0 .734-1.016.734V0c.344-.016.828-.031 1.156-.031.328 0 .828.015 1.172.031v-.313c-1.031 0-1.031-.468-1.031-.734v-5.375h.016L4.094-.219c.047.125.093.219.187.219.11 0 .14-.078.188-.188L6.922-6.5v5.719c0 .36-.016.469-.781.469h-.235V0c.36-.031 1.047-.031 1.438-.031.375 0 1.047 0 1.422.031v-.313h-.25c-.766 0-.782-.109-.782-.468v-5.25c0-.36.016-.469.782-.469h.25v-.313H7.078c-.266 0-.266.016-.328.188L4.562-1zm0 0"/></symbol><symbol overflow="visible" id="j"><path d="M7.188-3.375c0-2.031-1.5-3.656-3.313-3.656-1.797 0-3.313 1.593-3.313 3.656C.563-1.328 2.095.219 3.876.219c1.813 0 3.313-1.578 3.313-3.594zM3.874-.047c-.953 0-2.297-.875-2.297-3.469 0-2.578 1.469-3.265 2.297-3.265.86 0 2.281.703 2.281 3.265 0 2.641-1.36 3.47-2.281 3.47zm0 0"/></symbol><symbol overflow="visible" id="k"><path d="M.344-6.813v.313h.25c.765 0 .781.11.781.469v5.25c0 .36-.016.469-.781.469h-.25V0H4c1.672 0 3.047-1.469 3.047-3.344C7.047-5.25 5.703-6.813 4-6.813zm2.375 6.5c-.469 0-.485-.062-.485-.39v-5.39c0-.345.016-.407.485-.407h1c.625 0 1.312.219 1.812.922.438.594.516 1.453.516 2.234 0 1.094-.188 1.703-.547 2.188a2.192 2.192 0 0 1-1.766.843zm0 0"/></symbol><symbol overflow="visible" id="l"><path d="M2.875-2.5c0-.766-.11-1.969-.656-3.11C1.625-6.827.766-7.483.672-7.483a.107.107 0 0 0-.11.109c0 .031 0 .047.188.234.984.985 1.547 2.563 1.547 4.641 0 1.719-.36 3.469-1.594 4.719-.14.125-.14.14-.14.172 0 .062.046.109.109.109.094 0 1-.688 1.578-1.953.516-1.094.625-2.203.625-3.047zm0 0"/></symbol><symbol overflow="visible" id="m"><path d="M5.797-2.297c0 1.406-.969 2.203-1.906 2.203-.47 0-1.641-.25-1.641-2.14v-3.797c0-.36.016-.469.781-.469h.235v-.313c-.344.032-1.079.032-1.47.032-.374 0-1.124 0-1.468-.032v.313h.234c.766 0 .797.11.797.469v3.765C1.36-.875 2.516.22 3.875.22c1.14 0 2.031-.922 2.203-2.063.031-.203.031-.297.031-.687V-5.72c0-.328 0-.781 1.032-.781v-.313c-.36.016-.844.032-1.172.032-.36 0-.828-.016-1.188-.032v.313c1.016 0 1.016.469 1.016.734zm0 0"/></symbol><symbol overflow="visible" id="n"><path d="M5.797-2.578h-.25c-.11 1.015-.25 2.265-2 2.265h-.813c-.468 0-.484-.062-.484-.39v-5.313c0-.343 0-.484.938-.484h.328v-.313c-.36.032-1.266.032-1.672.032-.39 0-1.172 0-1.516-.032v.313h.234c.766 0 .797.11.797.469v5.25c0 .36-.03.469-.796.469H.328V0h5.188zm0 0"/></symbol><symbol overflow="visible" id="o"><path d="M2.313-6.672c-.094-.125-.094-.14-.282-.14H.328v.312h.297c.14 0 .344.016.484.016.235.03.25.046.25.234v5.203c0 .266 0 .734-1.03.734V0c.343-.016.843-.031 1.171-.031.328 0 .813.015 1.156.031v-.313c-1.015 0-1.015-.468-1.015-.734v-5.187c.046.046.046.062.093.125L5.797-.125c.094.11.11.125.172.125.14 0 .14-.063.14-.266v-5.5c0-.265 0-.734 1.032-.734v-.313c-.36.016-.844.032-1.172.032-.328 0-.813-.016-1.157-.032v.313c1.016 0 1.016.469 1.016.734V-1.5zm0 0"/></symbol><symbol overflow="visible" id="p"><path d="M3.89-.781v.89L5.329 0v-.313c-.687 0-.766-.062-.766-.562v-3.531l-1.468.11v.312c.687 0 .781.062.781.562v1.766c0 .875-.484 1.547-1.219 1.547-.828 0-.875-.47-.875-.985v-3.312l-1.468.11v.312c.78 0 .78.03.78.906v1.5c0 .781 0 1.687 1.516 1.687.563 0 1-.28 1.282-.89zm0 0"/></symbol><symbol overflow="visible" id="q"><path d="M1.094-3.422V-.75c0 .438-.11.438-.782.438V0c.36-.016.86-.031 1.141-.031.25 0 .766.015 1.11.031v-.313c-.672 0-.782 0-.782-.437v-1.844c0-1.031.719-1.594 1.344-1.594.64 0 .75.532.75 1.11V-.75c0 .438-.11.438-.781.438V0c.344-.016.86-.031 1.125-.031.25 0 .781.015 1.11.031v-.313c-.657 0-.766 0-.766-.437v-1.844c0-1.031.703-1.594 1.343-1.594.625 0 .735.532.735 1.11V-.75c0 .438-.11.438-.782.438V0c.344-.016.86-.031 1.125-.031.266 0 .782.015 1.125.031v-.313c-.515 0-.765 0-.78-.296v-1.907c0-.859 0-1.156-.313-1.515-.141-.172-.47-.375-1.047-.375-.828 0-1.282.593-1.438.984-.14-.875-.875-.984-1.328-.984-.734 0-1.203.422-1.484 1.047v-1.047l-1.407.11v.312c.704 0 .782.062.782.562zm0 0"/></symbol><symbol overflow="visible" id="r"><path d="M1.11-2.516C1.171-4 2.015-4.25 2.36-4.25c1.015 0 1.124 1.344 1.124 1.734zm0 .22h2.78c.22 0 .25 0 .25-.22 0-.984-.546-1.953-1.78-1.953C1.202-4.469.28-3.437.28-2.187.281-.86 1.328.108 2.47.108 3.688.11 4.14-1 4.14-1.187c0-.094-.079-.125-.141-.125-.078 0-.11.062-.125.14C3.531-.14 2.625-.14 2.531-.14c-.5 0-.89-.296-1.125-.671-.297-.47-.297-1.125-.297-1.485zm0 0"/></symbol><symbol overflow="visible" id="s"><path d="M1.766-4.406l-1.391.11v.312c.64 0 .734.062.734.546V-.75c0 .438-.109.438-.78.438V0c.312-.016.859-.031 1.093-.031.36 0 .703.015 1.047.031v-.313c-.672 0-.703-.046-.703-.437zm.03-1.735a.514.514 0 0 0-.515-.53.537.537 0 0 0-.531.53c0 .266.219.532.531.532a.514.514 0 0 0 .516-.532zm0 0"/></symbol><symbol overflow="visible" id="t"><path d="M1.172-2.172c0-1.625.812-2.047 1.344-2.047.093 0 .718.016 1.062.375-.406.031-.469.328-.469.453 0 .266.188.454.454.454.265 0 .468-.157.468-.47 0-.671-.765-1.062-1.531-1.062C1.25-4.469.344-3.39.344-2.156c0 1.281.984 2.265 2.14 2.265 1.329 0 1.657-1.203 1.657-1.296 0-.094-.11-.094-.141-.094-.078 0-.11.031-.125.093C3.594-.265 2.937-.14 2.578-.14c-.531 0-1.406-.421-1.406-2.03zm0 0"/></symbol><symbol overflow="visible" id="u"><path d="M1.719-3.984h1.437v-.313H1.72v-1.828h-.25c0 .813-.297 1.875-1.282 1.922v.219h.844v2.75c0 1.218.938 1.343 1.297 1.343.703 0 .985-.703.985-1.343v-.563h-.25v.547c0 .734-.297 1.11-.672 1.11-.672 0-.672-.907-.672-1.079zm0 0"/></symbol><symbol overflow="visible" id="v"><path d="M3.313-.75c.046.39.312.813.78.813.22 0 .829-.141.829-.954v-.562h-.25v.562c0 .579-.25.641-.36.641-.328 0-.375-.453-.375-.5v-1.984c0-.422 0-.813-.359-1.188-.39-.39-.89-.547-1.36-.547-.827 0-1.515.469-1.515 1.125 0 .297.203.469.469.469a.435.435 0 0 0 .453-.453c0-.125-.047-.453-.516-.453.282-.36.766-.469 1.079-.469.5 0 1.062.39 1.062 1.281v.36c-.516.03-1.203.062-1.828.359-.75.344-1 .86-1 1.297 0 .812.969 1.062 1.594 1.062.656 0 1.109-.406 1.296-.859zM3.25-2.39v1c0 .937-.719 1.28-1.172 1.28-.484 0-.89-.343-.89-.843 0-.547.421-1.375 2.062-1.438zm0 0"/></symbol><symbol overflow="visible" id="w"><path d="M1.766-6.922l-1.438.11v.312c.703 0 .781.063.781.563V-.75c0 .438-.109.438-.78.438V0c.327-.016.859-.031 1.109-.031s.734.015 1.109.031v-.313c-.672 0-.781 0-.781-.437zm0 0"/></symbol><symbol overflow="visible" id="z"><path d="M1.906-.531a.534.534 0 0 0-.515-.531.537.537 0 0 0-.532.53.524.524 0 1 0 1.047 0zm0 0"/></symbol><symbol overflow="visible" id="x"><path d="M3.094-5.797c0-.156 0-.406-.297-.406-.188 0-.25.125-.297.234-.375.86-.89.969-1.078.985-.172.015-.375.03-.375.312 0 .25.172.297.328.297.188 0 .594-.063 1.031-.438v4.204H1.5c-.156 0-.39 0-.39.312C1.11 0 1.36 0 1.5 0H4c.156 0 .406 0 .406-.297 0-.312-.234-.312-.406-.312h-.906zm0 0"/></symbol><symbol overflow="visible" id="y"><path d="M2.906-2.516c.61.329.25.141.938.547.265.172.297.172.375.172.203 0 .328-.187.328-.344 0-.156-.125-.25-.14-.265-.25-.172-.923-.5-1.188-.64l1.078-.579c.125-.078.25-.14.25-.328 0-.047 0-.328-.406-.328l-1.235.718c.031-.265.031-.921.031-1.218 0-.078 0-.407-.328-.407s-.328.329-.328.407c0 .297.016.953.031 1.218l-1.078-.64c-.14-.078-.156-.078-.234-.078a.34.34 0 0 0-.328.328c0 .187.11.25.25.312L2-3.047l-1.078.578c-.11.078-.25.14-.25.328 0 .047 0 .344.406.344l1.234-.719c-.015.25-.03.907-.03 1.204 0 .093 0 .421.327.421.329 0 .329-.328.329-.421 0-.297 0-.954-.032-1.204zm0 0"/></symbol><symbol overflow="visible" id="A"><path d="M.672-.578C.578-.5.516-.453.516-.313.516 0 .766 0 .922 0h3.39c.329 0 .391-.094.391-.406v-.266c0-.187 0-.406-.344-.406-.343 0-.343.187-.343.469H1.64c.593-.5 1.546-1.25 1.984-1.657.625-.562 1.078-1.187 1.078-1.984 0-1.203-1-1.953-2.219-1.953-1.171 0-1.968.812-1.968 1.672a.446.446 0 0 0 .89.031.426.426 0 0 0-.14-.328c.156-.453.625-.766 1.171-.766.813 0 1.579.453 1.579 1.344 0 .688-.485 1.266-1.141 1.813zm0 0"/></symbol><symbol overflow="visible" id="B"><path d="M3.656-3.328c.563-.36.844-.922.844-1.469 0-.734-.734-1.406-1.875-1.406-1.203 0-1.89.484-1.89 1.172 0 .328.25.468.437.468a.44.44 0 0 0 .437-.453c0-.14-.046-.234-.078-.265.297-.313 1.016-.313 1.094-.313.688 0 1.188.36 1.188.813 0 .297-.157.64-.422.86-.313.265-.563.28-.922.296-.578.047-.719.047-.719.328 0 .313.234.313.39.313h.47c.984 0 1.484.671 1.484 1.25C4.094-1.125 3.53-.5 2.625-.5c-.39 0-1.156-.11-1.422-.578.047-.047.125-.11.125-.313a.437.437 0 0 0-.437-.437c-.235 0-.454.156-.454.469 0 .89.97 1.468 2.188 1.468 1.313 0 2.156-.921 2.156-1.843 0-.704-.468-1.297-1.125-1.594zm0 0"/></symbol><symbol overflow="visible" id="C"><path d="M4.297-6.344a.523.523 0 0 0 .062-.218.363.363 0 0 0-.359-.36c-.234 0-.297.188-.344.313L.922.266C.89.359.875.406.875.484c0 .188.156.344.344.344.234 0 .312-.187.343-.297zM4.875-.5c0-.734-.375-1.328-.875-1.328-.484 0-.86.594-.86 1.328 0 .734.376 1.328.86 1.328.5 0 .875-.594.875-1.328zM4 .203c-.11 0-.297-.266-.297-.703 0-.438.188-.703.297-.703.125 0 .313.266.313.703 0 .438-.188.703-.313.703zM2.078-5.578c0-.781-.39-1.344-.86-1.344-.484 0-.874.578-.874 1.328 0 .782.39 1.344.875 1.344.484 0 .86-.578.86-1.328zm-.86.703c-.124 0-.312-.281-.312-.719 0-.406.188-.703.313-.703s.312.297.312.703c0 .438-.203.719-.312.719zm0 0"/></symbol><symbol overflow="visible" id="D"><path d="M.375-2.438c-.078.141-.078.157-.078.36 0 .328.078.39.39.39h2.516v1.079h-.625c-.156 0-.39 0-.39.312 0 .297.25.297.39.297h1.797c.156 0 .406 0 .406-.297 0-.312-.25-.312-.406-.312h-.61v-1.079h.766c.157 0 .407 0 .407-.296 0-.313-.25-.313-.407-.313h-.765v-3.5c0-.328-.079-.406-.422-.406h-.266c-.25 0-.297 0-.422.203zm.61.141l2.218-3.469v3.47zm0 0"/></symbol></defs><use xlink:href="#a" x="127.69" y="30.793"/><use xlink:href="#b" x="131.287" y="30.793"/><use xlink:href="#c" x="136.823" y="30.793"/><use xlink:href="#d" x="142.358" y="30.793"/><use xlink:href="#e" x="147.616" y="30.793"/><use xlink:href="#d" x="154.397" y="30.793"/><use xlink:href="#f" x="159.655" y="30.793"/><use xlink:href="#g" x="165.19" y="30.793"/><use xlink:href="#h" x="172.41" y="30.793"/><use xlink:href="#i" x="176.285" y="30.793"/><use xlink:href="#j" x="185.417" y="30.793"/><use xlink:href="#k" x="193.166" y="30.793"/><use xlink:href="#l" x="200.777" y="30.793"/><use xlink:href="#a" x="90.697" y="59.484"/><use xlink:href="#b" x="94.294" y="59.484"/><use xlink:href="#c" x="99.83" y="59.484"/><use xlink:href="#d" x="105.365" y="59.484"/><use xlink:href="#e" x="110.623" y="59.484"/><use xlink:href="#d" x="117.404" y="59.484"/><use xlink:href="#f" x="122.662" y="59.484"/><use xlink:href="#g" x="128.197" y="59.484"/><use xlink:href="#h" x="135.417" y="59.484"/><use xlink:href="#i" x="139.292" y="59.484"/><use xlink:href="#m" x="148.424" y="59.484"/><use xlink:href="#n" x="155.896" y="59.484"/><use xlink:href="#l" x="162.123" y="59.484"/><use xlink:href="#a" x="37.472" y="88.175"/><use xlink:href="#b" x="41.069" y="88.175"/><use xlink:href="#c" x="46.605" y="88.175"/><use xlink:href="#d" x="52.14" y="88.175"/><use xlink:href="#e" x="57.398" y="88.175"/><use xlink:href="#d" x="64.179" y="88.175"/><use xlink:href="#f" x="69.437" y="88.175"/><use xlink:href="#g" x="74.972" y="88.175"/><use xlink:href="#h" x="82.192" y="88.175"/><use xlink:href="#i" x="86.067" y="88.175"/><use xlink:href="#m" x="95.199" y="88.175"/><use xlink:href="#n" x="102.671" y="88.175"/><use xlink:href="#l" x="108.898" y="88.175"/><g><use xlink:href="#o" x="23.32" y="116.313"/><use xlink:href="#p" x="30.792" y="116.313"/><use xlink:href="#q" x="36.327" y="116.313"/><use xlink:href="#r" x="44.629" y="116.313"/><use xlink:href="#g" x="49.056" y="116.313"/><use xlink:href="#s" x="52.959" y="116.313"/><use xlink:href="#t" x="55.726" y="116.313"/><use xlink:href="#n" x="60.154" y="116.313"/><use xlink:href="#s" x="66.38" y="116.313"/><use xlink:href="#u" x="69.148" y="116.313"/><use xlink:href="#r" x="73.022" y="116.313"/><use xlink:href="#g" x="77.45" y="116.313"/><use xlink:href="#v" x="81.352" y="116.313"/><use xlink:href="#w" x="86.333" y="116.313"/></g><g><use xlink:href="#x" x="53.596" y="143.897"/></g><g><use xlink:href="#y" x="72.508" y="143.897"/></g><g><use xlink:href="#z" x="102.788" y="116.313"/></g><g><use xlink:href="#z" x="107.219" y="116.313"/></g><g><use xlink:href="#z" x="111.641" y="116.313"/></g><g><use xlink:href="#A" x="106.815" y="143.897"/></g><g><use xlink:href="#y" x="125.732" y="143.897"/></g><g><use xlink:href="#z" x="140.617" y="88.175"/></g><g><use xlink:href="#z" x="145.048" y="88.175"/></g><g><use xlink:href="#z" x="149.47" y="88.175"/></g><g><use xlink:href="#B" x="144.644" y="143.897"/></g><g><use xlink:href="#C" x="163.556" y="143.897"/></g><g><use xlink:href="#z" x="179.687" y="59.484"/></g><g><use xlink:href="#z" x="184.118" y="59.484"/></g><g><use xlink:href="#z" x="188.54" y="59.484"/></g><g><use xlink:href="#D" x="183.713" y="143.897"/></g><path d="M154.965 36.805L139.55 48.492M112.578 65.496L90.887 77.184M69.207 94.188l-8.14 11.687" fill="none" stroke-width=".399" stroke="#000" stroke-miterlimit="10"/><path d="M56.21 119.836v14.453M75.121 94.188v41.003" fill="none" stroke-width=".399" stroke="#000" stroke-dasharray=".3985,1.99255" stroke-miterlimit="10"/><path d="M84.809 94.188l20.011 17.554" fill="none" stroke-width=".399" stroke="#000" stroke-miterlimit="10"/><path d="M109.43 119.836v14.453M128.348 65.496v69.695" fill="none" stroke-width=".399" stroke="#000" stroke-dasharray=".3985,1.99255" stroke-miterlimit="10"/><path d="M133.59 65.496l11.176 18.11" fill="none" stroke-width=".399" stroke="#000" stroke-miterlimit="10"/><path d="M147.258 91.695v42.594M166.172 36.805v96.656" fill="none" stroke-width=".399" stroke="#000" stroke-dasharray=".3985,1.99255" stroke-miterlimit="10"/><path d="M171.758 36.805l11.91 18.11" fill="none" stroke-width=".399" stroke="#000" stroke-miterlimit="10"/><path d="M186.328 63.004v71.285" fill="none" stroke-width=".399" stroke="#000" stroke-dasharray=".3985,1.99255" stroke-miterlimit="10"/></svg>
