<svg xmlns="http://www.w3.org/2000/svg" xmlns:xlink="http://www.w3.org/1999/xlink" width="321.311" height="183.595" viewBox="0 0 240.983 137.696"><defs><symbol overflow="visible" id="a"><path d="M2.406-6.594c-.094-.218-.125-.218-.36-.218H.376v.312h.234c.766 0 .782.11.782.469v4.984c0 .266 0 .734-1.016.734V0c.344-.016.828-.031 1.156-.031.328 0 .828.015 1.172.031v-.313c-1.031 0-1.031-.468-1.031-.734v-5.375h.016L4.094-.219c.047.125.093.219.187.219.11 0 .14-.078.188-.188L6.922-6.5v5.719c0 .36-.016.469-.781.469h-.235V0c.36-.031 1.047-.031 1.438-.031.375 0 1.047 0 1.422.031v-.313h-.25c-.766 0-.782-.109-.782-.468v-5.25c0-.36.016-.469.782-.469h.25v-.313H7.078c-.266 0-.266.016-.328.188L4.562-1zm0 0"/></symbol><symbol overflow="visible" id="b"><path d="M3.89-.781v.89L5.329 0v-.313c-.687 0-.766-.062-.766-.562v-3.531l-1.468.11v.312c.687 0 .781.062.781.562v1.766c0 .875-.484 1.547-1.219 1.547-.828 0-.875-.47-.875-.985v-3.312l-1.468.11v.312c.78 0 .78.03.78.906v1.5c0 .781 0 1.687 1.516 1.687.563 0 1-.28 1.282-.89zm0 0"/></symbol><symbol overflow="visible" id="c"><path d="M1.766-6.922l-1.438.11v.312c.703 0 .781.063.781.563V-.75c0 .438-.109.438-.78.438V0c.327-.016.859-.031 1.109-.031s.734.015 1.109.031v-.313c-.672 0-.781 0-.781-.437zm0 0"/></symbol><symbol overflow="visible" id="d"><path d="M1.719-3.984h1.437v-.313H1.72v-1.828h-.25c0 .813-.297 1.875-1.282 1.922v.219h.844v2.75c0 1.218.938 1.343 1.297 1.343.703 0 .985-.703.985-1.343v-.563h-.25v.547c0 .734-.297 1.11-.672 1.11-.672 0-.672-.907-.672-1.079zm0 0"/></symbol><symbol overflow="visible" id="e"><path d="M1.766-4.406l-1.391.11v.312c.64 0 .734.062.734.546V-.75c0 .438-.109.438-.78.438V0c.312-.016.859-.031 1.093-.031.36 0 .703.015 1.047.031v-.313c-.672 0-.703-.046-.703-.437zm.03-1.735a.514.514 0 0 0-.515-.53.537.537 0 0 0-.531.53c0 .266.219.532.531.532a.514.514 0 0 0 .516-.532zm0 0"/></symbol><symbol overflow="visible" id="f"><path d="M1.719-3.75v-.656l-1.438.11v.312c.703 0 .781.062.781.5v4.656c0 .453-.109.453-.78.453v.313c.343-.016.859-.032 1.109-.032.28 0 .78.016 1.125.032v-.313c-.657 0-.766 0-.766-.453V-.594c.047.172.469.703 1.219.703 1.187 0 2.219-.984 2.219-2.265 0-1.266-.954-2.25-2.079-2.25-.78 0-1.203.437-1.39.656zm.031 2.61v-2.22c.281-.515.766-.796 1.281-.796.735 0 1.328.875 1.328 2C4.36-.953 3.672-.11 2.938-.11c-.407 0-.782-.204-1.047-.61-.141-.203-.141-.219-.141-.422zm0 0"/></symbol><symbol overflow="visible" id="g"><path d="M1.172-2.172c0-1.625.812-2.047 1.344-2.047.093 0 .718.016 1.062.375-.406.031-.469.328-.469.453 0 .266.188.454.454.454.265 0 .468-.157.468-.47 0-.671-.765-1.062-1.531-1.062C1.25-4.469.344-3.39.344-2.156c0 1.281.984 2.265 2.14 2.265 1.329 0 1.657-1.203 1.657-1.296 0-.094-.11-.094-.141-.094-.078 0-.11.031-.125.093C3.594-.265 2.937-.14 2.578-.14c-.531 0-1.406-.421-1.406-2.03zm0 0"/></symbol><symbol overflow="visible" id="h"><path d="M3.313-.75c.046.39.312.813.78.813.22 0 .829-.141.829-.954v-.562h-.25v.562c0 .579-.25.641-.36.641-.328 0-.375-.453-.375-.5v-1.984c0-.422 0-.813-.359-1.188-.39-.39-.89-.547-1.36-.547-.827 0-1.515.469-1.515 1.125 0 .297.203.469.469.469a.435.435 0 0 0 .453-.453c0-.125-.047-.453-.516-.453.282-.36.766-.469 1.079-.469.5 0 1.062.39 1.062 1.281v.36c-.516.03-1.203.062-1.828.359-.75.344-1 .86-1 1.297 0 .812.969 1.062 1.594 1.062.656 0 1.109-.406 1.296-.859zM3.25-2.39v1c0 .937-.719 1.28-1.172 1.28-.484 0-.89-.343-.89-.843 0-.547.421-1.375 2.062-1.438zm0 0"/></symbol><symbol overflow="visible" id="i"><path d="M4.14-3.313c.094-.234.266-.671.923-.671v-.313c-.235.016-.516.031-.75.031-.235 0-.688-.015-.86-.03v.312c.36 0 .469.234.469.421 0 .094-.016.141-.047.25L2.844-.78l-1.11-2.781c-.062-.126-.062-.141-.062-.172 0-.25.39-.25.578-.25v-.313c-.313.016-.86.031-1.094.031-.265 0-.672-.015-.968-.03v.312c.625 0 .671.062.796.359L2.422-.078c.062.14.078.187.203.187.14 0 .172-.093.219-.187zm0 0"/></symbol><symbol overflow="visible" id="j"><path d="M1.11-2.516C1.171-4 2.015-4.25 2.36-4.25c1.015 0 1.124 1.344 1.124 1.734zm0 .22h2.78c.22 0 .25 0 .25-.22 0-.984-.546-1.953-1.78-1.953C1.202-4.469.28-3.437.28-2.187.281-.86 1.328.108 2.47.108 3.688.11 4.14-1 4.14-1.187c0-.094-.079-.125-.141-.125-.078 0-.11.062-.125.14C3.531-.14 2.625-.14 2.531-.14c-.5 0-.89-.296-1.125-.671-.297-.47-.297-1.125-.297-1.485zm0 0"/></symbol><symbol overflow="visible" id="k"><path d="M1.36-.781c0 .36-.032.469-.798.469H.329V0h5.75L6.5-2.578h-.25C6-1.031 5.766-.313 4.062-.313H2.734c-.468 0-.484-.062-.484-.39v-2.672h.89c.97 0 1.079.328 1.079 1.172h.25v-2.64h-.25c0 .859-.11 1.171-1.078 1.171H2.25v-2.406c0-.328.016-.39.484-.39h1.282c1.53 0 1.796.546 1.953 1.937h.25l-.282-2.25H.329v.312h.234c.766 0 .797.11.797.469zm0 0"/></symbol><symbol overflow="visible" id="l"><path d="M2.86-2.344c.296-.375.671-.86.921-1.125.313-.36.719-.515 1.188-.515v-.313c-.266.016-.563.031-.828.031-.297 0-.829-.015-.954-.03v.312c.22.015.297.14.297.312 0 .156-.109.281-.156.344l-.61.781-.78-1.015c-.094-.094-.094-.11-.094-.172 0-.157.156-.25.343-.25v-.313c-.25.016-.906.031-1.078.031-.203 0-.671-.015-.937-.03v.312c.703 0 .703 0 1.172.609l.984 1.281-.937 1.188a1.566 1.566 0 0 1-1.266.594V0c.25-.016.563-.031.828-.031.281 0 .703.015.938.031v-.313c-.22-.03-.282-.156-.282-.312 0-.219.282-.547.891-1.266l.766 1c.078.11.203.266.203.329 0 .093-.094.25-.36.25V0c.297-.016.86-.031 1.079-.031.265 0 .656.015.953.031v-.313c-.532 0-.72-.015-.938-.312zm0 0"/></symbol><symbol overflow="visible" id="m"><path d="M1.672-3.313v-1.093l-1.39.11v.312c.702 0 .78.062.78.562V-.75c0 .438-.109.438-.78.438V0c.39-.016.859-.031 1.14-.031.39 0 .86 0 1.266.031v-.313h-.22c-.734 0-.75-.109-.75-.468v-1.531c0-.985.423-1.876 1.173-1.876.062 0 .093 0 .109.016-.031 0-.234.125-.234.39 0 .266.218.423.437.423a.421.421 0 0 0 .422-.438c0-.312-.313-.61-.734-.61-.735 0-1.094.673-1.22 1.095zm0 0"/></symbol><symbol overflow="visible" id="n"><path d="M2.078-1.938c.219.047 1.031.204 1.031.922 0 .5-.343.907-1.125.907-.843 0-1.203-.563-1.39-1.422-.031-.125-.031-.157-.14-.157-.126 0-.126.063-.126.235v1.328c0 .172 0 .234.11.234C.483.11.5.094.688-.094.703-.109.703-.125.89-.312c.437.406.89.421 1.093.421 1.141 0 1.61-.671 1.61-1.39 0-.516-.297-.828-.422-.938-.328-.328-.719-.406-1.14-.484-.563-.11-1.22-.235-1.22-.813 0-.359.25-.765 1.11-.765 1.094 0 1.156.906 1.172 1.203 0 .094.094.094.11.094.14 0 .14-.047.14-.235v-1.015c0-.157 0-.235-.11-.235-.046 0-.078 0-.203.125-.031.032-.125.125-.172.157-.375-.282-.78-.282-.937-.282-1.219 0-1.594.672-1.594 1.235 0 .343.156.625.422.843.328.25.61.313 1.328.454zm0 0"/></symbol><symbol overflow="visible" id="o"><path d="M4.688-2.14c0-1.266-.985-2.329-2.188-2.329C1.25-4.469.281-3.375.281-2.14A2.22 2.22 0 0 0 2.484.11c1.204 0 2.204-.984 2.204-2.25zM2.5-.14c-.438 0-.875-.204-1.14-.672-.25-.438-.25-1.047-.25-1.407 0-.39 0-.922.234-1.36a1.347 1.347 0 0 1 1.14-.671c.438 0 .86.219 1.125.656.266.422.266 1 .266 1.375 0 .36 0 .906-.219 1.344-.234.453-.672.734-1.156.734zm0 0"/></symbol><symbol overflow="visible" id="p"><path d="M1.094-3.422V-.75c0 .438-.11.438-.782.438V0c.36-.016.86-.031 1.141-.031.25 0 .766.015 1.11.031v-.313c-.672 0-.782 0-.782-.437v-1.844c0-1.031.719-1.594 1.344-1.594.64 0 .75.532.75 1.11V-.75c0 .438-.11.438-.781.438V0c.344-.016.86-.031 1.125-.031.25 0 .781.015 1.11.031v-.313c-.516 0-.766 0-.766-.296v-1.907c0-.859 0-1.156-.313-1.515-.14-.172-.469-.375-1.047-.375-.734 0-1.203.422-1.484 1.047v-1.047l-1.407.11v.312c.704 0 .782.062.782.562zm0 0"/></symbol><symbol overflow="visible" id="q"><path d="M1.531-5.875c0-.594-.25-1.047-.672-1.047a.517.517 0 0 0-.53.531c0 .266.171.532.53.532.204 0 .344-.11.391-.157.016-.03.031-.03.031-.03.032 0 .032.14.032.171 0 .328-.079 1.047-.704 1.656-.125.125-.125.14-.125.172 0 .063.047.11.11.11.11 0 .937-.75.937-1.938zm1.922 0c0-.594-.234-1.047-.656-1.047-.36 0-.531.266-.531.531 0 .266.171.532.53.532.188 0 .329-.11.392-.157.015-.03.015-.03.03-.03.016 0 .016.14.016.171a2.28 2.28 0 0 1-.687 1.656c-.125.125-.125.14-.125.172 0 .063.047.11.094.11.109 0 .937-.75.937-1.938zm0 0"/></symbol><symbol overflow="visible" id="r"><path d="M6.828-7.094c.063-.093.078-.125.078-.187a.207.207 0 0 0-.203-.203c-.094 0-.14.078-.203.14-.5.688-1.172.953-1.89.953-.704 0-1.313-.25-1.876-.765-.187-.172-.39-.328-.703-.328-.765 0-1.469.843-1.469 2.015 0 1.203.72 2.016 1.47 2.016.718 0 1.28-.89 1.28-2.016 0-.14 0-.61-.203-1.125.657.375 1.141.422 1.5.422.766 0 1.266-.312 1.329-.344h.015L1.47.156C1.39.296 1.39.344 1.39.36c0 .11.093.204.187.204.11 0 .125-.047.203-.157zM2.031-3.672c-.203 0-.86-.14-.86-1.797 0-1.656.657-1.781.86-1.781.531 0 1.047.734 1.047 1.781 0 1.078-.531 1.797-1.047 1.797zM6.453.344c-.203 0-.86-.14-.86-1.797 0-1.656.641-1.781.86-1.781.531 0 1.031.734 1.031 1.78 0 1.079-.515 1.798-1.03 1.798zm1.281-1.797c0-1.14-.593-2-1.296-2-.75 0-1.47.828-1.47 2 0 1.203.72 2.016 1.47 2.016.734 0 1.296-.891 1.296-2.016zm0 0"/></symbol><symbol overflow="visible" id="s"><path d="M2.266-3.156h1.687c1.188 0 2.266-.797 2.266-1.797 0-.984-.985-1.86-2.344-1.86H.344v.313h.25c.765 0 .781.11.781.469v5.25c0 .36-.016.469-.781.469h-.25V0c.36-.031 1.094-.031 1.469-.031s1.125 0 1.484.031v-.313h-.25c-.766 0-.781-.109-.781-.468zm-.032-.25v-2.688c0-.343.016-.406.485-.406h.89c1.579 0 1.579 1.063 1.579 1.547 0 .469 0 1.547-1.579 1.547zm0 0"/></symbol><symbol overflow="visible" id="t"><path d="M1.094-3.422V-.75c0 .438-.11.438-.782.438V0c.36-.016.86-.031 1.141-.031.25 0 .766.015 1.11.031v-.313c-.672 0-.782 0-.782-.437v-1.844c0-1.031.719-1.594 1.344-1.594.64 0 .75.532.75 1.11V-.75c0 .438-.11.438-.781.438V0c.344-.016.86-.031 1.125-.031.25 0 .781.015 1.11.031v-.313c-.657 0-.766 0-.766-.437v-1.844c0-1.031.703-1.594 1.343-1.594.625 0 .735.532.735 1.11V-.75c0 .438-.11.438-.782.438V0c.344-.016.86-.031 1.125-.031.266 0 .782.015 1.125.031v-.313c-.515 0-.765 0-.78-.296v-1.907c0-.859 0-1.156-.313-1.515-.141-.172-.47-.375-1.047-.375-.828 0-1.282.593-1.438.984-.14-.875-.875-.984-1.328-.984-.734 0-1.203.422-1.484 1.047v-1.047l-1.407.11v.312c.704 0 .782.062.782.562zm0 0"/></symbol><symbol overflow="visible" id="u"><path d="M4.14-3.344c.25-.64.766-.64.923-.64v-.313c-.235.016-.516.031-.75.031-.172 0-.641-.015-.86-.03v.312c.313 0 .469.171.469.421 0 .11-.016.126-.063.25L2.844-.874 1.75-3.547c-.047-.11-.063-.14-.063-.187 0-.25.36-.25.563-.25v-.313c-.266.016-.922.031-1.094.031-.265 0-.672-.015-.968-.03v.312c.484 0 .671 0 .812.343L2.5 0a6.764 6.764 0 0 0-.25.594c-.219.547-.5 1.234-1.14 1.234-.048 0-.282 0-.47-.187.313-.032.391-.25.391-.422C1.031.969.844.812.61.812c-.203 0-.421.125-.421.422 0 .454.421.813.921.813.625 0 1.032-.578 1.266-1.14zm0 0"/></symbol><symbol overflow="visible" id="v"><path d="M5.797-2.578h-.25c-.11 1.015-.25 2.265-2 2.265h-.813c-.468 0-.484-.062-.484-.39v-5.313c0-.343 0-.484.938-.484h.328v-.313c-.36.032-1.266.032-1.672.032-.39 0-1.172 0-1.516-.032v.313h.234c.766 0 .797.11.797.469v5.25c0 .36-.03.469-.796.469H.328V0h5.188zm0 0"/></symbol><symbol overflow="visible" id="y"><path d="M1.906-.531a.534.534 0 0 0-.515-.531.537.537 0 0 0-.532.53.524.524 0 1 0 1.047 0zm0 0"/></symbol><symbol overflow="visible" id="w"><path d="M3.094-5.797c0-.156 0-.406-.297-.406-.188 0-.25.125-.297.234-.375.86-.89.969-1.078.985-.172.015-.375.03-.375.312 0 .25.172.297.328.297.188 0 .594-.063 1.031-.438v4.204H1.5c-.156 0-.39 0-.39.312C1.11 0 1.36 0 1.5 0H4c.156 0 .406 0 .406-.297 0-.312-.234-.312-.406-.312h-.906zm0 0"/></symbol><symbol overflow="visible" id="x"><path d="M2.906-2.516c.61.329.25.141.938.547.265.172.297.172.375.172.203 0 .328-.187.328-.344 0-.156-.125-.25-.14-.265-.25-.172-.923-.5-1.188-.64l1.078-.579c.125-.078.25-.14.25-.328 0-.047 0-.328-.406-.328l-1.235.718c.031-.265.031-.921.031-1.218 0-.078 0-.407-.328-.407s-.328.329-.328.407c0 .297.016.953.031 1.218l-1.078-.64c-.14-.078-.156-.078-.234-.078a.34.34 0 0 0-.328.328c0 .187.11.25.25.312L2-3.047l-1.078.578c-.11.078-.25.14-.25.328 0 .047 0 .344.406.344l1.234-.719c-.015.25-.03.907-.03 1.204 0 .093 0 .421.327.421.329 0 .329-.328.329-.421 0-.297 0-.954-.032-1.204zm0 0"/></symbol><symbol overflow="visible" id="z"><path d="M.672-.578C.578-.5.516-.453.516-.313.516 0 .766 0 .922 0h3.39c.329 0 .391-.094.391-.406v-.266c0-.187 0-.406-.344-.406-.343 0-.343.187-.343.469H1.64c.593-.5 1.546-1.25 1.984-1.657.625-.562 1.078-1.187 1.078-1.984 0-1.203-1-1.953-2.219-1.953-1.171 0-1.968.812-1.968 1.672a.446.446 0 0 0 .89.031.426.426 0 0 0-.14-.328c.156-.453.625-.766 1.171-.766.813 0 1.579.453 1.579 1.344 0 .688-.485 1.266-1.141 1.813zm0 0"/></symbol><symbol overflow="visible" id="A"><path d="M3.656-3.328c.563-.36.844-.922.844-1.469 0-.734-.734-1.406-1.875-1.406-1.203 0-1.89.484-1.89 1.172 0 .328.25.468.437.468a.44.44 0 0 0 .437-.453c0-.14-.046-.234-.078-.265.297-.313 1.016-.313 1.094-.313.688 0 1.188.36 1.188.813 0 .297-.157.64-.422.86-.313.265-.563.28-.922.296-.578.047-.719.047-.719.328 0 .313.234.313.39.313h.47c.984 0 1.484.671 1.484 1.25C4.094-1.125 3.53-.5 2.625-.5c-.39 0-1.156-.11-1.422-.578.047-.047.125-.11.125-.313a.437.437 0 0 0-.437-.437c-.235 0-.454.156-.454.469 0 .89.97 1.468 2.188 1.468 1.313 0 2.156-.921 2.156-1.843 0-.704-.468-1.297-1.125-1.594zm0 0"/></symbol><symbol overflow="visible" id="B"><path d="M4.297-6.344a.523.523 0 0 0 .062-.218.363.363 0 0 0-.359-.36c-.234 0-.297.188-.344.313L.922.266C.89.359.875.406.875.484c0 .188.156.344.344.344.234 0 .312-.187.343-.297zM4.875-.5c0-.734-.375-1.328-.875-1.328-.484 0-.86.594-.86 1.328 0 .734.376 1.328.86 1.328.5 0 .875-.594.875-1.328zM4 .203c-.11 0-.297-.266-.297-.703 0-.438.188-.703.297-.703.125 0 .313.266.313.703 0 .438-.188.703-.313.703zM2.078-5.578c0-.781-.39-1.344-.86-1.344-.484 0-.874.578-.874 1.328 0 .782.39 1.344.875 1.344.484 0 .86-.578.86-1.328zm-.86.703c-.124 0-.312-.281-.312-.719 0-.406.188-.703.313-.703s.312.297.312.703c0 .438-.203.719-.312.719zm0 0"/></symbol><symbol overflow="visible" id="C"><path d="M.375-2.438c-.078.141-.078.157-.078.36 0 .328.078.39.39.39h2.516v1.079h-.625c-.156 0-.39 0-.39.312 0 .297.25.297.39.297h1.797c.156 0 .406 0 .406-.297 0-.312-.25-.312-.406-.312h-.61v-1.079h.766c.157 0 .407 0 .407-.296 0-.313-.25-.313-.407-.313h-.765v-3.5c0-.328-.079-.406-.422-.406h-.266c-.25 0-.297 0-.422.203zm.61.141l2.218-3.469v3.47zm0 0"/></symbol></defs><use xlink:href="#a" x="73.286" y="30.792"/><use xlink:href="#b" x="82.419" y="30.792"/><use xlink:href="#c" x="87.954" y="30.792"/><use xlink:href="#d" x="90.722" y="30.792"/><use xlink:href="#e" x="94.596" y="30.792"/><use xlink:href="#f" x="97.364" y="30.792"/><use xlink:href="#c" x="102.899" y="30.792"/><use xlink:href="#e" x="105.666" y="30.792"/><use xlink:href="#g" x="108.434" y="30.792"/><use xlink:href="#h" x="112.861" y="30.792"/><use xlink:href="#d" x="117.843" y="30.792"/><use xlink:href="#e" x="121.717" y="30.792"/><use xlink:href="#i" x="124.485" y="30.792"/><use xlink:href="#j" x="129.464" y="30.792"/><use xlink:href="#k" x="133.891" y="30.792"/><use xlink:href="#l" x="140.672" y="30.792"/><use xlink:href="#f" x="145.93" y="30.792"/><use xlink:href="#m" x="151.466" y="30.792"/><use xlink:href="#j" x="155.368" y="30.792"/><use xlink:href="#n" x="159.795" y="30.792"/><use xlink:href="#n" x="163.724" y="30.792"/><use xlink:href="#e" x="167.654" y="30.792"/><use xlink:href="#o" x="170.421" y="30.792"/><use xlink:href="#p" x="175.403" y="30.792"/><use xlink:href="#q" x="184.255" y="30.792"/><use xlink:href="#r" x="189.237" y="30.792"/><use xlink:href="#q" x="197.539" y="30.792"/><use xlink:href="#s" x="23.32" y="58.377"/><use xlink:href="#m" x="30.101" y="58.377"/><use xlink:href="#e" x="34.003" y="58.377"/><use xlink:href="#t" x="36.771" y="58.377"/><use xlink:href="#h" x="45.072" y="58.377"/><use xlink:href="#m" x="50.054" y="58.377"/><use xlink:href="#u" x="53.956" y="58.377"/><use xlink:href="#k" x="59.214" y="58.377"/><use xlink:href="#l" x="65.995" y="58.377"/><use xlink:href="#f" x="71.253" y="58.377"/><use xlink:href="#m" x="76.788" y="58.377"/><use xlink:href="#j" x="80.691" y="58.377"/><use xlink:href="#n" x="85.118" y="58.377"/><use xlink:href="#n" x="89.047" y="58.377"/><use xlink:href="#e" x="92.977" y="58.377"/><use xlink:href="#o" x="95.744" y="58.377"/><use xlink:href="#p" x="100.725" y="58.377"/><use xlink:href="#v" x="50.317" y="85.961"/><use xlink:href="#e" x="56.544" y="85.961"/><use xlink:href="#d" x="59.311" y="85.961"/><use xlink:href="#j" x="63.186" y="85.961"/><use xlink:href="#m" x="67.613" y="85.961"/><use xlink:href="#h" x="71.515" y="85.961"/><use xlink:href="#c" x="76.497" y="85.961"/><g><use xlink:href="#w" x="62.175" y="113.545"/></g><g><use xlink:href="#x" x="113.813" y="113.545"/></g><g><use xlink:href="#y" x="128.698" y="58.377"/></g><g><use xlink:href="#y" x="133.129" y="58.377"/></g><g><use xlink:href="#y" x="137.551" y="58.377"/></g><g><use xlink:href="#y" x="128.698" y="85.961"/></g><g><use xlink:href="#y" x="133.129" y="85.961"/></g><g><use xlink:href="#y" x="137.551" y="85.961"/></g><g><use xlink:href="#z" x="132.725" y="113.545"/></g><g><use xlink:href="#x" x="151.648" y="113.545"/></g><g><use xlink:href="#y" x="166.533" y="58.377"/></g><g><use xlink:href="#y" x="170.964" y="58.377"/></g><g><use xlink:href="#y" x="175.386" y="58.377"/></g><g><use xlink:href="#y" x="166.533" y="85.961"/></g><g><use xlink:href="#y" x="170.964" y="85.961"/></g><g><use xlink:href="#y" x="175.386" y="85.961"/></g><g><use xlink:href="#A" x="170.56" y="113.545"/></g><g><use xlink:href="#B" x="189.472" y="113.545"/></g><g><use xlink:href="#y" x="204.379" y="58.377"/></g><g><use xlink:href="#y" x="208.81" y="58.377"/></g><g><use xlink:href="#y" x="213.232" y="58.377"/></g><g><use xlink:href="#y" x="204.379" y="85.961"/></g><g><use xlink:href="#y" x="208.81" y="85.961"/></g><g><use xlink:href="#y" x="213.232" y="85.961"/></g><g><use xlink:href="#C" x="208.405" y="113.545"/></g><path d="M116.367 36.25l-30.914 11.8M64.79 63.832v11.691" fill="none" stroke-width=".399" stroke="#000" stroke-miterlimit="10"/><path d="M64.79 89.48v14.457M132.086 36.25l-15.66 22.125M116.426 58.375v46.46" fill="none" stroke-width=".399" stroke="#000" stroke-dasharray=".3985,1.99255" stroke-miterlimit="10"/><path d="M137.2 36.25l-1.512 17.555M135.34 61.898v19.493" fill="none" stroke-width=".399" stroke="#000" stroke-miterlimit="10"/><path d="M135.34 89.48v14.457M142.336 36.25l11.926 22.125M154.262 58.375v46.46" fill="none" stroke-width=".399" stroke="#000" stroke-dasharray=".3985,1.99255" stroke-miterlimit="10"/><path d="M147.629 36.25l20.762 17.555M173.176 61.898v19.493" fill="none" stroke-width=".399" stroke="#000" stroke-miterlimit="10"/><path d="M173.176 89.48v14.457M152.586 36.25l39.5 22.125M192.086 58.375v44.734" fill="none" stroke-width=".399" stroke="#000" stroke-dasharray=".3985,1.99255" stroke-miterlimit="10"/><path d="M158.063 36.25l43.042 17.555M211.02 61.898v19.493" fill="none" stroke-width=".399" stroke="#000" stroke-miterlimit="10"/><path d="M211.02 89.48v14.457" fill="none" stroke-width=".399" stroke="#000" stroke-dasharray=".3985,1.99255" stroke-miterlimit="10"/></svg>
