<svg xmlns="http://www.w3.org/2000/svg" xmlns:xlink="http://www.w3.org/1999/xlink" width="321.767" height="221.851" viewBox="0 0 241.325 166.388"><defs><symbol overflow="visible" id="a"><path d="M2.406-6.594c-.094-.218-.125-.218-.36-.218H.376v.312h.234c.766 0 .782.11.782.469v4.984c0 .266 0 .734-1.016.734V0c.344-.016.828-.031 1.156-.031.328 0 .828.015 1.172.031v-.313c-1.031 0-1.031-.468-1.031-.734v-5.375h.016L4.094-.219c.047.125.093.219.187.219.11 0 .14-.078.188-.188L6.922-6.5v5.719c0 .36-.016.469-.781.469h-.235V0c.36-.031 1.047-.031 1.438-.031.375 0 1.047 0 1.422.031v-.313h-.25c-.766 0-.782-.109-.782-.468v-5.25c0-.36.016-.469.782-.469h.25v-.313H7.078c-.266 0-.266.016-.328.188L4.562-1zm0 0"/></symbol><symbol overflow="visible" id="b"><path d="M3.89-.781v.89L5.329 0v-.313c-.687 0-.766-.062-.766-.562v-3.531l-1.468.11v.312c.687 0 .781.062.781.562v1.766c0 .875-.484 1.547-1.219 1.547-.828 0-.875-.47-.875-.985v-3.312l-1.468.11v.312c.78 0 .78.03.78.906v1.5c0 .781 0 1.687 1.516 1.687.563 0 1-.28 1.282-.89zm0 0"/></symbol><symbol overflow="visible" id="c"><path d="M1.766-6.922l-1.438.11v.312c.703 0 .781.063.781.563V-.75c0 .438-.109.438-.78.438V0c.327-.016.859-.031 1.109-.031s.734.015 1.109.031v-.313c-.672 0-.781 0-.781-.437zm0 0"/></symbol><symbol overflow="visible" id="d"><path d="M1.719-3.984h1.437v-.313H1.72v-1.828h-.25c0 .813-.297 1.875-1.282 1.922v.219h.844v2.75c0 1.218.938 1.343 1.297 1.343.703 0 .985-.703.985-1.343v-.563h-.25v.547c0 .734-.297 1.11-.672 1.11-.672 0-.672-.907-.672-1.079zm0 0"/></symbol><symbol overflow="visible" id="e"><path d="M1.766-4.406l-1.391.11v.312c.64 0 .734.062.734.546V-.75c0 .438-.109.438-.78.438V0c.312-.016.859-.031 1.093-.031.36 0 .703.015 1.047.031v-.313c-.672 0-.703-.046-.703-.437zm.03-1.735a.514.514 0 0 0-.515-.53.537.537 0 0 0-.531.53c0 .266.219.532.531.532a.514.514 0 0 0 .516-.532zm0 0"/></symbol><symbol overflow="visible" id="f"><path d="M1.719-3.75v-.656l-1.438.11v.312c.703 0 .781.062.781.5v4.656c0 .453-.109.453-.78.453v.313c.343-.016.859-.032 1.109-.032.28 0 .78.016 1.125.032v-.313c-.657 0-.766 0-.766-.453V-.594c.047.172.469.703 1.219.703 1.187 0 2.219-.984 2.219-2.265 0-1.266-.954-2.25-2.079-2.25-.78 0-1.203.437-1.39.656zm.031 2.61v-2.22c.281-.515.766-.796 1.281-.796.735 0 1.328.875 1.328 2C4.36-.953 3.672-.11 2.938-.11c-.407 0-.782-.204-1.047-.61-.141-.203-.141-.219-.141-.422zm0 0"/></symbol><symbol overflow="visible" id="g"><path d="M1.172-2.172c0-1.625.812-2.047 1.344-2.047.093 0 .718.016 1.062.375-.406.031-.469.328-.469.453 0 .266.188.454.454.454.265 0 .468-.157.468-.47 0-.671-.765-1.062-1.531-1.062C1.25-4.469.344-3.39.344-2.156c0 1.281.984 2.265 2.14 2.265 1.329 0 1.657-1.203 1.657-1.296 0-.094-.11-.094-.141-.094-.078 0-.11.031-.125.093C3.594-.265 2.937-.14 2.578-.14c-.531 0-1.406-.421-1.406-2.03zm0 0"/></symbol><symbol overflow="visible" id="h"><path d="M3.313-.75c.046.39.312.813.78.813.22 0 .829-.141.829-.954v-.562h-.25v.562c0 .579-.25.641-.36.641-.328 0-.375-.453-.375-.5v-1.984c0-.422 0-.813-.359-1.188-.39-.39-.89-.547-1.36-.547-.827 0-1.515.469-1.515 1.125 0 .297.203.469.469.469a.435.435 0 0 0 .453-.453c0-.125-.047-.453-.516-.453.282-.36.766-.469 1.079-.469.5 0 1.062.39 1.062 1.281v.36c-.516.03-1.203.062-1.828.359-.75.344-1 .86-1 1.297 0 .812.969 1.062 1.594 1.062.656 0 1.109-.406 1.296-.859zM3.25-2.39v1c0 .937-.719 1.28-1.172 1.28-.484 0-.89-.343-.89-.843 0-.547.421-1.375 2.062-1.438zm0 0"/></symbol><symbol overflow="visible" id="i"><path d="M4.14-3.313c.094-.234.266-.671.923-.671v-.313c-.235.016-.516.031-.75.031-.235 0-.688-.015-.86-.03v.312c.36 0 .469.234.469.421 0 .094-.016.141-.047.25L2.844-.78l-1.11-2.781c-.062-.126-.062-.141-.062-.172 0-.25.39-.25.578-.25v-.313c-.313.016-.86.031-1.094.031-.265 0-.672-.015-.968-.03v.312c.625 0 .671.062.796.359L2.422-.078c.062.14.078.187.203.187.14 0 .172-.093.219-.187zm0 0"/></symbol><symbol overflow="visible" id="j"><path d="M1.11-2.516C1.171-4 2.015-4.25 2.36-4.25c1.015 0 1.124 1.344 1.124 1.734zm0 .22h2.78c.22 0 .25 0 .25-.22 0-.984-.546-1.953-1.78-1.953C1.202-4.469.28-3.437.28-2.187.281-.86 1.328.108 2.47.108 3.688.11 4.14-1 4.14-1.187c0-.094-.079-.125-.141-.125-.078 0-.11.062-.125.14C3.531-.14 2.625-.14 2.531-.14c-.5 0-.89-.296-1.125-.671-.297-.47-.297-1.125-.297-1.485zm0 0"/></symbol><symbol overflow="visible" id="k"><path d="M1.36-.781c0 .36-.032.469-.798.469H.329V0h5.75L6.5-2.578h-.25C6-1.031 5.766-.313 4.062-.313H2.734c-.468 0-.484-.062-.484-.39v-2.672h.89c.97 0 1.079.328 1.079 1.172h.25v-2.64h-.25c0 .859-.11 1.171-1.078 1.171H2.25v-2.406c0-.328.016-.39.484-.39h1.282c1.53 0 1.796.546 1.953 1.937h.25l-.282-2.25H.329v.312h.234c.766 0 .797.11.797.469zm0 0"/></symbol><symbol overflow="visible" id="l"><path d="M2.86-2.344c.296-.375.671-.86.921-1.125.313-.36.719-.515 1.188-.515v-.313c-.266.016-.563.031-.828.031-.297 0-.829-.015-.954-.03v.312c.22.015.297.14.297.312 0 .156-.109.281-.156.344l-.61.781-.78-1.015c-.094-.094-.094-.11-.094-.172 0-.157.156-.25.343-.25v-.313c-.25.016-.906.031-1.078.031-.203 0-.671-.015-.937-.03v.312c.703 0 .703 0 1.172.609l.984 1.281-.937 1.188a1.566 1.566 0 0 1-1.266.594V0c.25-.016.563-.031.828-.031.281 0 .703.015.938.031v-.313c-.22-.03-.282-.156-.282-.312 0-.219.282-.547.891-1.266l.766 1c.078.11.203.266.203.329 0 .093-.094.25-.36.25V0c.297-.016.86-.031 1.079-.031.265 0 .656.015.953.031v-.313c-.532 0-.72-.015-.938-.312zm0 0"/></symbol><symbol overflow="visible" id="m"><path d="M1.672-3.313v-1.093l-1.39.11v.312c.702 0 .78.062.78.562V-.75c0 .438-.109.438-.78.438V0c.39-.016.859-.031 1.14-.031.39 0 .86 0 1.266.031v-.313h-.22c-.734 0-.75-.109-.75-.468v-1.531c0-.985.423-1.876 1.173-1.876.062 0 .093 0 .109.016-.031 0-.234.125-.234.39 0 .266.218.423.437.423a.421.421 0 0 0 .422-.438c0-.312-.313-.61-.734-.61-.735 0-1.094.673-1.22 1.095zm0 0"/></symbol><symbol overflow="visible" id="n"><path d="M1.531-5.875c0-.594-.25-1.047-.672-1.047a.517.517 0 0 0-.53.531c0 .266.171.532.53.532.204 0 .344-.11.391-.157.016-.03.031-.03.031-.03.032 0 .032.14.032.171 0 .328-.079 1.047-.704 1.656-.125.125-.125.14-.125.172 0 .063.047.11.11.11.11 0 .937-.75.937-1.938zm1.922 0c0-.594-.234-1.047-.656-1.047-.36 0-.531.266-.531.531 0 .266.171.532.53.532.188 0 .329-.11.392-.157.015-.03.015-.03.03-.03.016 0 .016.14.016.171a2.28 2.28 0 0 1-.687 1.656c-.125.125-.125.14-.125.172 0 .063.047.11.094.11.109 0 .937-.75.937-1.938zm0 0"/></symbol><symbol overflow="visible" id="o"><path d="M6.828-7.094c.063-.093.078-.125.078-.187a.207.207 0 0 0-.203-.203c-.094 0-.14.078-.203.14-.5.688-1.172.953-1.89.953-.704 0-1.313-.25-1.876-.765-.187-.172-.39-.328-.703-.328-.765 0-1.469.843-1.469 2.015 0 1.203.72 2.016 1.47 2.016.718 0 1.28-.89 1.28-2.016 0-.14 0-.61-.203-1.125.657.375 1.141.422 1.5.422.766 0 1.266-.312 1.329-.344h.015L1.47.156C1.39.296 1.39.344 1.39.36c0 .11.093.204.187.204.11 0 .125-.047.203-.157zM2.031-3.672c-.203 0-.86-.14-.86-1.797 0-1.656.657-1.781.86-1.781.531 0 1.047.734 1.047 1.781 0 1.078-.531 1.797-1.047 1.797zM6.453.344c-.203 0-.86-.14-.86-1.797 0-1.656.641-1.781.86-1.781.531 0 1.031.734 1.031 1.78 0 1.079-.515 1.798-1.03 1.798zm1.281-1.797c0-1.14-.593-2-1.296-2-.75 0-1.47.828-1.47 2 0 1.203.72 2.016 1.47 2.016.734 0 1.296-.891 1.296-2.016zm0 0"/></symbol><symbol overflow="visible" id="p"><path d="M2.61-5.125c.484.36 1.234.922 1.28.953.063.031.094.063.172.063.157 0 .266-.157.266-.282 0-.109-.047-.187-.219-.28l-1.39-.657 1.375-.656c.187-.094.234-.157.234-.282 0-.125-.11-.28-.266-.28-.078 0-.093 0-.359.202L2.61-5.53l.141-1.703c0-.141-.125-.25-.25-.25-.172 0-.281.125-.281.25 0 .109.14 1.484.156 1.703l-1.234-.907C1-6.546.984-6.546.92-6.546c-.171 0-.28.156-.28.281 0 .11.046.188.218.282l1.407.656-1.391.656c-.188.094-.234.156-.234.281 0 .016 0 .282.343.282l1.391-1.016-.156 1.703c0 .14.14.235.265.235.157 0 .266-.11.266-.235 0-.11-.125-1.484-.14-1.703zm0 0"/></symbol><symbol overflow="visible" id="q"><path d="M2.313-6.672c-.094-.125-.094-.14-.282-.14H.328v.312h.297c.14 0 .344.016.484.016.235.03.25.046.25.234v5.203c0 .266 0 .734-1.03.734V0c.343-.016.843-.031 1.171-.031.328 0 .813.015 1.156.031v-.313c-1.015 0-1.015-.468-1.015-.734v-5.187c.046.046.046.062.093.125L5.797-.125c.094.11.11.125.172.125.14 0 .14-.063.14-.266v-5.5c0-.265 0-.734 1.032-.734v-.313c-.36.016-.844.032-1.172.032-.328 0-.813-.016-1.157-.032v.313c1.016 0 1.016.469 1.016.734V-1.5zm0 0"/></symbol><symbol overflow="visible" id="r"><path d="M1.094-3.422V-.75c0 .438-.11.438-.782.438V0c.36-.016.86-.031 1.141-.031.25 0 .766.015 1.11.031v-.313c-.672 0-.782 0-.782-.437v-1.844c0-1.031.719-1.594 1.344-1.594.64 0 .75.532.75 1.11V-.75c0 .438-.11.438-.781.438V0c.344-.016.86-.031 1.125-.031.25 0 .781.015 1.11.031v-.313c-.657 0-.766 0-.766-.437v-1.844c0-1.031.703-1.594 1.343-1.594.625 0 .735.532.735 1.11V-.75c0 .438-.11.438-.782.438V0c.344-.016.86-.031 1.125-.031.266 0 .782.015 1.125.031v-.313c-.515 0-.765 0-.78-.296v-1.907c0-.859 0-1.156-.313-1.515-.141-.172-.47-.375-1.047-.375-.828 0-1.282.593-1.438.984-.14-.875-.875-.984-1.328-.984-.734 0-1.203.422-1.484 1.047v-1.047l-1.407.11v.312c.704 0 .782.062.782.562zm0 0"/></symbol><symbol overflow="visible" id="s"><path d="M5.797-2.578h-.25c-.11 1.015-.25 2.265-2 2.265h-.813c-.468 0-.484-.062-.484-.39v-5.313c0-.343 0-.484.938-.484h.328v-.313c-.36.032-1.266.032-1.672.032-.39 0-1.172 0-1.516-.032v.313h.234c.766 0 .797.11.797.469v5.25c0 .36-.03.469-.796.469H.328V0h5.188zm0 0"/></symbol><symbol overflow="visible" id="v"><path d="M1.906-.531a.534.534 0 0 0-.515-.531.537.537 0 0 0-.532.53.524.524 0 1 0 1.047 0zm0 0"/></symbol><symbol overflow="visible" id="t"><path d="M3.094-5.797c0-.156 0-.406-.297-.406-.188 0-.25.125-.297.234-.375.86-.89.969-1.078.985-.172.015-.375.03-.375.312 0 .25.172.297.328.297.188 0 .594-.063 1.031-.438v4.204H1.5c-.156 0-.39 0-.39.312C1.11 0 1.36 0 1.5 0H4c.156 0 .406 0 .406-.297 0-.312-.234-.312-.406-.312h-.906zm0 0"/></symbol><symbol overflow="visible" id="u"><path d="M2.906-2.516c.61.329.25.141.938.547.265.172.297.172.375.172.203 0 .328-.187.328-.344 0-.156-.125-.25-.14-.265-.25-.172-.923-.5-1.188-.64l1.078-.579c.125-.078.25-.14.25-.328 0-.047 0-.328-.406-.328l-1.235.718c.031-.265.031-.921.031-1.218 0-.078 0-.407-.328-.407s-.328.329-.328.407c0 .297.016.953.031 1.218l-1.078-.64c-.14-.078-.156-.078-.234-.078a.34.34 0 0 0-.328.328c0 .187.11.25.25.312L2-3.047l-1.078.578c-.11.078-.25.14-.25.328 0 .047 0 .344.406.344l1.234-.719c-.015.25-.03.907-.03 1.204 0 .093 0 .421.327.421.329 0 .329-.328.329-.421 0-.297 0-.954-.032-1.204zm0 0"/></symbol><symbol overflow="visible" id="w"><path d="M.672-.578C.578-.5.516-.453.516-.313.516 0 .766 0 .922 0h3.39c.329 0 .391-.094.391-.406v-.266c0-.187 0-.406-.344-.406-.343 0-.343.187-.343.469H1.64c.593-.5 1.546-1.25 1.984-1.657.625-.562 1.078-1.187 1.078-1.984 0-1.203-1-1.953-2.219-1.953-1.171 0-1.968.812-1.968 1.672a.446.446 0 0 0 .89.031.426.426 0 0 0-.14-.328c.156-.453.625-.766 1.171-.766.813 0 1.579.453 1.579 1.344 0 .688-.485 1.266-1.141 1.813zm0 0"/></symbol><symbol overflow="visible" id="x"><path d="M3.656-3.328c.563-.36.844-.922.844-1.469 0-.734-.734-1.406-1.875-1.406-1.203 0-1.89.484-1.89 1.172 0 .328.25.468.437.468a.44.44 0 0 0 .437-.453c0-.14-.046-.234-.078-.265.297-.313 1.016-.313 1.094-.313.688 0 1.188.36 1.188.813 0 .297-.157.64-.422.86-.313.265-.563.28-.922.296-.578.047-.719.047-.719.328 0 .313.234.313.39.313h.47c.984 0 1.484.671 1.484 1.25C4.094-1.125 3.53-.5 2.625-.5c-.39 0-1.156-.11-1.422-.578.047-.047.125-.11.125-.313a.437.437 0 0 0-.437-.437c-.235 0-.454.156-.454.469 0 .89.97 1.468 2.188 1.468 1.313 0 2.156-.921 2.156-1.843 0-.704-.468-1.297-1.125-1.594zm0 0"/></symbol><symbol overflow="visible" id="y"><path d="M4.297-6.344a.523.523 0 0 0 .062-.218.363.363 0 0 0-.359-.36c-.234 0-.297.188-.344.313L.922.266C.89.359.875.406.875.484c0 .188.156.344.344.344.234 0 .312-.187.343-.297zM4.875-.5c0-.734-.375-1.328-.875-1.328-.484 0-.86.594-.86 1.328 0 .734.376 1.328.86 1.328.5 0 .875-.594.875-1.328zM4 .203c-.11 0-.297-.266-.297-.703 0-.438.188-.703.297-.703.125 0 .313.266.313.703 0 .438-.188.703-.313.703zM2.078-5.578c0-.781-.39-1.344-.86-1.344-.484 0-.874.578-.874 1.328 0 .782.39 1.344.875 1.344.484 0 .86-.578.86-1.328zm-.86.703c-.124 0-.312-.281-.312-.719 0-.406.188-.703.313-.703s.312.297.312.703c0 .438-.203.719-.312.719zm0 0"/></symbol><symbol overflow="visible" id="z"><path d="M.375-2.438c-.078.141-.078.157-.078.36 0 .328.078.39.39.39h2.516v1.079h-.625c-.156 0-.39 0-.39.312 0 .297.25.297.39.297h1.797c.156 0 .406 0 .406-.297 0-.312-.25-.312-.406-.312h-.61v-1.079h.766c.157 0 .407 0 .407-.296 0-.313-.25-.313-.407-.313h-.765v-3.5c0-.328-.079-.406-.422-.406h-.266c-.25 0-.297 0-.422.203zm.61.141l2.218-3.469v3.47zm0 0"/></symbol></defs><use xlink:href="#a" x="114.338" y="30.793"/><use xlink:href="#b" x="123.471" y="30.793"/><use xlink:href="#c" x="129.006" y="30.793"/><use xlink:href="#d" x="131.774" y="30.793"/><use xlink:href="#e" x="135.648" y="30.793"/><use xlink:href="#f" x="138.416" y="30.793"/><use xlink:href="#c" x="143.951" y="30.793"/><use xlink:href="#e" x="146.718" y="30.793"/><use xlink:href="#g" x="149.486" y="30.793"/><use xlink:href="#h" x="153.913" y="30.793"/><use xlink:href="#d" x="158.895" y="30.793"/><use xlink:href="#e" x="162.769" y="30.793"/><use xlink:href="#i" x="165.537" y="30.793"/><use xlink:href="#j" x="170.516" y="30.793"/><use xlink:href="#k" x="174.943" y="30.793"/><use xlink:href="#l" x="181.724" y="30.793"/><use xlink:href="#f" x="186.982" y="30.793"/><use xlink:href="#m" x="192.518" y="30.793"/><use xlink:href="#n" x="199.737" y="30.793"/><use xlink:href="#o" x="204.719" y="30.793"/><use xlink:href="#n" x="213.021" y="30.793"/><use xlink:href="#a" x="78.174" y="58.931"/><use xlink:href="#b" x="87.307" y="58.931"/><use xlink:href="#c" x="92.842" y="58.931"/><use xlink:href="#d" x="95.61" y="58.931"/><use xlink:href="#e" x="99.484" y="58.931"/><use xlink:href="#f" x="102.252" y="58.931"/><use xlink:href="#c" x="107.787" y="58.931"/><use xlink:href="#e" x="110.554" y="58.931"/><use xlink:href="#g" x="113.322" y="58.931"/><use xlink:href="#h" x="117.749" y="58.931"/><use xlink:href="#d" x="122.731" y="58.931"/><use xlink:href="#e" x="126.605" y="58.931"/><use xlink:href="#i" x="129.373" y="58.931"/><use xlink:href="#j" x="134.352" y="58.931"/><use xlink:href="#k" x="138.779" y="58.931"/><use xlink:href="#l" x="145.56" y="58.931"/><use xlink:href="#f" x="150.818" y="58.931"/><use xlink:href="#m" x="156.354" y="58.931"/><g><use xlink:href="#n" x="163.573" y="58.931"/><use xlink:href="#p" x="168.555" y="58.931"/><use xlink:href="#n" x="173.536" y="58.931"/></g><g><use xlink:href="#a" x="24.95" y="87.069"/><use xlink:href="#b" x="34.083" y="87.069"/><use xlink:href="#c" x="39.618" y="87.069"/><use xlink:href="#d" x="42.386" y="87.069"/><use xlink:href="#e" x="46.26" y="87.069"/><use xlink:href="#f" x="49.028" y="87.069"/><use xlink:href="#c" x="54.563" y="87.069"/><use xlink:href="#e" x="57.33" y="87.069"/><use xlink:href="#g" x="60.098" y="87.069"/><use xlink:href="#h" x="64.525" y="87.069"/><use xlink:href="#d" x="69.507" y="87.069"/><use xlink:href="#e" x="73.381" y="87.069"/><use xlink:href="#i" x="76.149" y="87.069"/></g><g><use xlink:href="#j" x="81.128" y="87.069"/><use xlink:href="#k" x="85.555" y="87.069"/><use xlink:href="#l" x="92.336" y="87.069"/><use xlink:href="#f" x="97.594" y="87.069"/><use xlink:href="#m" x="103.13" y="87.069"/></g><g><use xlink:href="#n" x="110.349" y="87.069"/><use xlink:href="#p" x="115.331" y="87.069"/><use xlink:href="#n" x="120.312" y="87.069"/></g><g><use xlink:href="#q" x="23.32" y="114.653"/><use xlink:href="#b" x="30.792" y="114.653"/><use xlink:href="#r" x="36.327" y="114.653"/><use xlink:href="#j" x="44.629" y="114.653"/><use xlink:href="#m" x="49.056" y="114.653"/><use xlink:href="#e" x="52.959" y="114.653"/><use xlink:href="#g" x="55.726" y="114.653"/><use xlink:href="#s" x="60.154" y="114.653"/><use xlink:href="#e" x="66.38" y="114.653"/><use xlink:href="#d" x="69.148" y="114.653"/><use xlink:href="#j" x="73.022" y="114.653"/><use xlink:href="#m" x="77.45" y="114.653"/><use xlink:href="#h" x="81.352" y="114.653"/><use xlink:href="#c" x="86.333" y="114.653"/></g><g><use xlink:href="#t" x="53.596" y="142.237"/></g><g><use xlink:href="#u" x="72.508" y="142.237"/></g><g><use xlink:href="#v" x="102.788" y="114.653"/></g><g><use xlink:href="#v" x="107.219" y="114.653"/></g><g><use xlink:href="#v" x="111.641" y="114.653"/></g><g><use xlink:href="#w" x="106.815" y="142.237"/></g><g><use xlink:href="#u" x="125.732" y="142.237"/></g><g><use xlink:href="#v" x="140.617" y="87.069"/></g><g><use xlink:href="#v" x="145.048" y="87.069"/></g><g><use xlink:href="#v" x="149.47" y="87.069"/></g><g><use xlink:href="#x" x="144.644" y="142.237"/></g><g><use xlink:href="#y" x="163.556" y="142.237"/></g><g><use xlink:href="#v" x="192.208" y="58.931"/></g><g><use xlink:href="#v" x="196.639" y="58.931"/></g><g><use xlink:href="#v" x="201.061" y="58.931"/></g><g><use xlink:href="#z" x="196.235" y="142.237"/></g><path d="M155.117 36.25l-15.719 11.688M112.793 64.387L90.676 76.078M69.34 92.527l-8.223 11.688" fill="none" stroke-width=".399" stroke="#000" stroke-miterlimit="10"/><path d="M56.21 118.176v14.453M75.121 92.527v41.004" fill="none" stroke-width=".399" stroke="#000" stroke-dasharray=".3985,1.99255" stroke-miterlimit="10"/><path d="M84.578 92.527l20.2 17.555" fill="none" stroke-width=".399" stroke="#000" stroke-miterlimit="10"/><path d="M109.43 118.176v14.453M128.348 64.387v69.144" fill="none" stroke-width=".399" stroke="#000" stroke-dasharray=".3985,1.99255" stroke-miterlimit="10"/><path d="M133.465 64.387l11.277 18.11" fill="none" stroke-width=".399" stroke="#000" stroke-miterlimit="10"/><path d="M147.258 90.59v42.039M166.172 36.25v95.55" fill="none" stroke-width=".399" stroke="#000" stroke-dasharray=".3985,1.99255" stroke-miterlimit="10"/><path d="M175.016 36.25L194.5 54.36" fill="none" stroke-width=".399" stroke="#000" stroke-miterlimit="10"/><path d="M198.852 62.45v70.179" fill="none" stroke-width=".399" stroke="#000" stroke-dasharray=".3985,1.99255" stroke-miterlimit="10"/></svg>
