<?xml version="1.0" encoding="utf-8"?>
<!-- Generator: Adobe Illustrator 22.0.1, SVG Export Plug-In . SVG Version: 6.00 Build 0)  -->
<svg version="1.1" id="Layer_1" xmlns="http://www.w3.org/2000/svg" xmlns:xlink="http://www.w3.org/1999/xlink" x="0px" y="0px"
	 viewBox="0 0 1600 1200" enable-background="new 0 0 1600 1200" xml:space="preserve">
<g>
	<path fill="none" d="M774.1,695.7c-1.6,0-3,0.6-4.1,1.7c-1.2,1.1-1.7,2.7-1.7,4.7c0,2,0.6,3.6,1.7,4.8c1.2,1.2,2.5,1.8,4.1,1.8
		c1.6,0,3-0.6,4.1-1.8c1.2-1.2,1.7-2.8,1.7-4.8c0-2-0.6-3.6-1.7-4.7C777.1,696.3,775.7,695.7,774.1,695.7z"/>
	<path fill="none" d="M934.8,558.4h-24.9v79.3h26.1c21.4,0,37.1-16.1,37.1-39.5C973.2,574.7,956.7,558.4,934.8,558.4z"/>
	<path fill="none" d="M732.2,693.2c-1.6-1.6-3.6-2.4-6-2.4c-2.5,0-4.5,0.8-6,2.4c-1.6,1.6-2.3,3.8-2.3,6.4s0.8,4.8,2.3,6.4
		c1.6,1.6,3.6,2.4,6,2.4c2.5,0,4.5-0.8,6-2.4c1.6-1.6,2.3-3.8,2.3-6.4S733.7,694.9,732.2,693.2z"/>
	<path fill="none" d="M941,695.6c-1.5,0-2.7,0.5-3.7,1.4c-1,0.9-1.6,2.2-1.7,3.8h10.7c0-1.6-0.6-2.9-1.6-3.8
		C943.8,696.1,942.5,695.6,941,695.6z"/>
	<path fill="none" d="M891.5,695.7c-1.6,0-3,0.6-4.1,1.7s-1.7,2.7-1.7,4.7c0,2,0.6,3.6,1.7,4.8c1.2,1.2,2.5,1.8,4.1,1.8
		c1.6,0,3-0.6,4.1-1.8c1.2-1.2,1.7-2.8,1.7-4.8c0-2-0.6-3.6-1.7-4.7C894.5,696.3,893.1,695.7,891.5,695.7z"/>
	<path fill="none" d="M645.1,695.6c-1.6,0-3,0.6-4.1,1.7c-1.1,1.2-1.7,2.8-1.7,4.9s0.5,3.7,1.6,4.9c1.1,1.2,2.4,1.7,4,1.7
		c1.6,0,3-0.6,4.2-1.8c1.2-1.2,1.8-2.8,1.8-4.9c0-2.1-0.6-3.7-1.7-4.9C648.1,696.2,646.7,695.6,645.1,695.6z"/>
	<path fill="none" d="M667.6,695.7c-1.6,0-3,0.6-4.1,1.7c-1.2,1.1-1.7,2.7-1.7,4.7c0,2,0.6,3.6,1.7,4.8c1.2,1.2,2.5,1.8,4.1,1.8
		c1.6,0,3-0.6,4.1-1.8c1.2-1.2,1.7-2.8,1.7-4.8c0-2-0.6-3.6-1.7-4.7C670.6,696.3,669.2,695.7,667.6,695.7z"/>
	<path fill="none" d="M691,695.6c-1.5,0-2.7,0.5-3.7,1.4c-1,0.9-1.6,2.2-1.7,3.8h10.7c0-1.6-0.6-2.9-1.6-3.8S692.5,695.6,691,695.6z
		"/>
	<path fill="#58595B" d="M620.6,690.8c3,0,5.2,1.2,6.5,3.7h4.8c-0.9-2.3-2.4-4.2-4.4-5.4s-4.3-1.9-6.9-1.9c-3.5,0-6.4,1.2-8.9,3.5
		c-2.4,2.4-3.6,5.3-3.6,9s1.2,6.6,3.6,8.9c2.4,2.3,5.4,3.5,8.9,3.5c2.6,0,4.9-0.6,6.9-1.9c2-1.3,3.5-3.1,4.4-5.4h-4.8
		c-1.3,2.5-3.5,3.7-6.5,3.7c-2.5,0-4.5-0.8-6-2.4c-1.6-1.6-2.3-3.8-2.3-6.4s0.8-4.8,2.3-6.4C616.1,691.6,618.1,690.8,620.6,690.8z"
		/>
	<path fill="#58595B" d="M645.2,692.2c-2.8,0-5.2,0.9-7,2.8c-1.9,1.8-2.8,4.3-2.8,7.2s0.9,5.4,2.7,7.2c1.8,1.8,4.2,2.8,7,2.8
		c2.8,0,5.2-0.9,7.1-2.8c1.9-1.8,2.9-4.3,2.9-7.2c0-3-0.9-5.4-2.8-7.2S648,692.2,645.2,692.2z M649.2,707.1
		c-1.2,1.2-2.6,1.8-4.2,1.8c-1.6,0-2.9-0.6-4-1.7c-1.1-1.2-1.6-2.8-1.6-4.9s0.6-3.7,1.7-4.9c1.1-1.2,2.5-1.7,4.1-1.7s3,0.6,4.1,1.7
		c1.1,1.2,1.7,2.8,1.7,4.9C650.9,704.3,650.3,705.9,649.2,707.1z"/>
	<path fill="#58595B" d="M673.5,696c-0.6-1.1-1.5-2-2.7-2.7c-1.2-0.7-2.5-1-4-1c-2.6,0-4.8,0.9-6.5,2.8c-1.7,1.8-2.6,4.2-2.6,7.2
		c0,2.9,0.9,5.4,2.6,7.2c1.8,1.9,3.9,2.8,6.5,2.8c1.5,0,2.9-0.4,4-1.1s2-1.7,2.7-2.9v3.6h4v-26h-4V696z M671.8,707
		c-1.2,1.2-2.5,1.8-4.1,1.8c-1.6,0-3-0.6-4.1-1.8c-1.2-1.2-1.7-2.8-1.7-4.8c0-2,0.6-3.6,1.7-4.7c1.2-1.1,2.5-1.7,4.1-1.7
		c1.6,0,3,0.6,4.1,1.8c1.2,1.2,1.7,2.8,1.7,4.7C673.5,704.2,672.9,705.8,671.8,707z"/>
	<path fill="#58595B" d="M691.1,692.2c-2.8,0-5.1,0.9-6.9,2.7c-1.8,1.8-2.7,4.2-2.7,7.3c0,3,0.9,5.4,2.6,7.3c1.8,1.8,4,2.7,6.9,2.7
		c2.3,0,4.2-0.6,5.7-1.7s2.6-2.6,3.2-4.4h-4.3c-0.9,1.8-2.4,2.7-4.6,2.7c-1.5,0-2.7-0.5-3.7-1.4c-1-0.9-1.5-2.2-1.6-3.8h14.8
		c0.1-0.6,0.1-1.2,0.1-1.9c0-2.8-0.9-5.1-2.6-6.8C696.2,693.1,693.9,692.2,691.1,692.2z M685.6,700.8c0.1-1.6,0.7-2.9,1.7-3.8
		c1-0.9,2.2-1.4,3.7-1.4s2.7,0.5,3.8,1.4s1.6,2.2,1.6,3.8H685.6z"/>
	<path fill="#58595B" d="M737.2,705.7c1-1.8,1.5-3.8,1.5-6.1c0-3.6-1.2-6.6-3.6-8.9c-2.4-2.4-5.4-3.5-8.9-3.5
		c-3.5,0-6.5,1.2-8.9,3.5c-2.4,2.4-3.6,5.3-3.6,9s1.2,6.6,3.6,9c2.4,2.4,5.4,3.5,8.9,3.5c1.3,0,2.4-0.2,3.5-0.5l4.3,4.6h5.1
		l-5.9-6.2C734.9,709,736.2,707.6,737.2,705.7z M726.2,708.5c-2.5,0-4.5-0.8-6-2.4c-1.6-1.6-2.3-3.8-2.3-6.4s0.8-4.8,2.3-6.4
		c1.6-1.6,3.6-2.4,6-2.4c2.5,0,4.5,0.8,6,2.4c1.6,1.6,2.3,3.8,2.3,6.4s-0.8,4.8-2.3,6.4C730.6,707.7,728.6,708.5,726.2,708.5z"/>
	<path fill="#58595B" d="M756.2,703.4c0,1.7-0.4,3.1-1.3,4c-0.9,0.9-2.1,1.4-3.6,1.4c-1.5,0-2.7-0.5-3.5-1.4c-0.9-0.9-1.3-2.3-1.3-4
		v-10.8h-4V704c0,2.6,0.7,4.6,2.1,6.1c1.4,1.4,3.2,2.2,5.4,2.2c2.9,0,4.9-1.1,6.2-3.3v3.1h4v-19.4h-4V703.4z"/>
	<path fill="#58595B" d="M780,696c-0.6-1.1-1.5-2-2.7-2.7c-1.2-0.7-2.5-1-4-1c-2.6,0-4.8,0.9-6.5,2.8c-1.7,1.8-2.6,4.2-2.6,7.2
		c0,2.9,0.9,5.4,2.6,7.2c1.8,1.9,3.9,2.8,6.5,2.8c1.5,0,2.9-0.4,4-1.1s2-1.7,2.7-2.9v3.6h4v-19.4h-4V696z M778.2,707
		c-1.2,1.2-2.5,1.8-4.1,1.8c-1.6,0-3-0.6-4.1-1.8c-1.2-1.2-1.7-2.8-1.7-4.8c0-2,0.6-3.6,1.7-4.7c1.2-1.1,2.5-1.7,4.1-1.7
		c1.6,0,3,0.6,4.1,1.8c1.2,1.2,1.7,2.8,1.7,4.7C780,704.2,779.4,705.8,778.2,707z"/>
	<rect x="789.3" y="685.9" fill="#58595B" width="4" height="26"/>
	<path fill="#58595B" d="M800.6,684.9c-0.7,0-1.3,0.2-1.8,0.7c-0.5,0.5-0.7,1.1-0.7,1.8c0,0.7,0.2,1.3,0.7,1.8
		c0.5,0.5,1.1,0.7,1.8,0.7c0.7,0,1.3-0.2,1.8-0.7c0.5-0.5,0.7-1.1,0.7-1.8c0-0.7-0.2-1.3-0.7-1.8
		C801.9,685.1,801.3,684.9,800.6,684.9z"/>
	<rect x="798.6" y="692.5" fill="#58595B" width="4" height="19.4"/>
	<path fill="#58595B" d="M812.5,687.7h-4v4.8h-2.3v3.3h2.3v10.7c0,3.6,1.9,5.4,5.6,5.4h3.2v-3.3h-2.5c-0.8,0-1.4-0.2-1.7-0.5
		c-0.3-0.3-0.5-0.8-0.5-1.6v-10.7h4.7v-3.3h-4.7V687.7z"/>
	<polygon fill="#58595B" points="828.5,707.3 823.1,692.5 818.6,692.5 826.2,711.6 822.3,721 826.5,721 838.3,692.5 834.2,692.5 	
		"/>
	<polygon fill="#58595B" points="864.8,706.6 856.2,687.5 851.9,687.5 851.9,711.9 855.9,711.9 855.9,695.2 863.4,711.9 
		866.1,711.9 873.6,695.2 873.6,711.9 877.6,711.9 877.6,687.5 873.3,687.5 	"/>
	<path fill="#58595B" d="M897.4,696c-0.6-1.1-1.5-2-2.7-2.7c-1.2-0.7-2.5-1-4-1c-2.6,0-4.8,0.9-6.5,2.8s-2.6,4.2-2.6,7.2
		c0,2.9,0.9,5.4,2.6,7.2s3.9,2.8,6.5,2.8c1.5,0,2.9-0.4,4-1.1s2-1.7,2.7-2.9v3.6h4v-19.4h-4V696z M895.6,707
		c-1.2,1.2-2.5,1.8-4.1,1.8c-1.6,0-3-0.6-4.1-1.8c-1.2-1.2-1.7-2.8-1.7-4.8c0-2,0.6-3.6,1.7-4.7s2.5-1.7,4.1-1.7
		c1.6,0,3,0.6,4.1,1.8c1.2,1.2,1.7,2.8,1.7,4.7C897.4,704.2,896.8,705.8,895.6,707z"/>
	<path fill="#58595B" d="M911.4,687.7h-4v4.8H905v3.3h2.3v10.7c0,3.6,1.9,5.4,5.6,5.4h3.2v-3.3h-2.5c-0.8,0-1.4-0.2-1.7-0.5
		c-0.3-0.3-0.5-0.8-0.5-1.6v-10.7h4.7v-3.3h-4.7V687.7z"/>
	<path fill="#58595B" d="M924.4,687.7h-4v4.8h-2.3v3.3h2.3v10.7c0,3.6,1.9,5.4,5.6,5.4h3.2v-3.3h-2.5c-0.8,0-1.4-0.2-1.7-0.5
		c-0.3-0.3-0.5-0.8-0.5-1.6v-10.7h4.7v-3.3h-4.7V687.7z"/>
	<path fill="#58595B" d="M941.1,692.2c-2.8,0-5.1,0.9-6.9,2.7s-2.7,4.2-2.7,7.3c0,3,0.9,5.4,2.6,7.3s4,2.7,6.9,2.7
		c2.3,0,4.2-0.6,5.7-1.7c1.5-1.1,2.6-2.6,3.2-4.4h-4.3c-0.9,1.8-2.4,2.7-4.6,2.7c-1.5,0-2.7-0.5-3.7-1.4c-1-0.9-1.5-2.2-1.6-3.8
		h14.8c0.1-0.6,0.1-1.2,0.1-1.9c0-2.8-0.9-5.1-2.6-6.8C946.2,693.1,943.9,692.2,941.1,692.2z M935.6,700.8c0.1-1.6,0.7-2.9,1.7-3.8
		c1-0.9,2.2-1.4,3.7-1.4s2.7,0.5,3.8,1.4c1,0.9,1.6,2.2,1.6,3.8H935.6z"/>
	<path fill="#58595B" d="M958.5,695.9v-3.4h-4v19.4h4v-10.2c0-2,0.4-3.3,1.2-4.1s2-1.2,3.6-1.2h1v-4.1
		C961.7,692.2,959.7,693.5,958.5,695.9z"/>
	<path fill="#58595B" d="M978.4,701.6c-1.1-0.3-2.2-0.6-3.3-0.8c-1.1-0.2-2.1-0.5-2.8-1c-0.8-0.4-1.2-1.1-1.2-1.8
		c0-0.8,0.3-1.4,0.9-1.9c0.6-0.5,1.5-0.7,2.5-0.7s1.9,0.3,2.5,0.8c0.6,0.5,0.9,1.3,1,2.2h4.1c-0.1-1.9-0.8-3.4-2.1-4.6
		c-1.3-1.1-3.1-1.7-5.4-1.7c-2.2,0-4.1,0.6-5.4,1.7c-1.4,1.1-2.1,2.5-2.1,4.2c0,1.3,0.4,2.3,1.2,3.1c0.8,0.8,1.7,1.3,2.8,1.6
		c1.1,0.3,2.2,0.6,3.3,0.8c1.1,0.2,2.1,0.6,2.8,1c0.8,0.4,1.2,1.1,1.2,1.9s-0.3,1.4-1,1.9c-0.6,0.5-1.5,0.7-2.6,0.7
		s-1.9-0.3-2.6-0.8c-0.6-0.5-1-1.3-1.1-2.2h-4.1c0.1,2,0.9,3.5,2.3,4.6c1.4,1.1,3.2,1.6,5.4,1.6c2.2,0,4-0.5,5.5-1.6
		c1.4-1.1,2.1-2.4,2.1-4.1c0-1.4-0.4-2.4-1.2-3.3C980.4,702.5,979.5,701.9,978.4,701.6z"/>
	<polygon fill="#58595B" points="993.2,704.2 993.7,685.6 989.5,685.6 989.9,704.2 	"/>
	<path fill="#58595B" d="M991.7,707.1c-0.7,0-1.2,0.2-1.7,0.7c-0.5,0.5-0.7,1-0.7,1.7c0,0.7,0.2,1.2,0.7,1.7s1,0.7,1.7,0.7
		s1.2-0.2,1.7-0.7c0.5-0.5,0.7-1,0.7-1.7c0-0.7-0.2-1.2-0.7-1.7C992.9,707.3,992.4,707.1,991.7,707.1z"/>
	<path fill="#58595B" d="M569.6,682.1c-0.5-3.1-1.1-6.2-1.1-9.3c-0.1-17.6,0-35.2-0.2-52.8c-0.1-7.3-1.9-14.2-7.1-19.7
		c-1.8-1.9-3.9-3.6-5.9-5.4c2-1.8,4.1-3.5,5.9-5.4c5.2-5.5,7-12.3,7.1-19.7c0.2-17.6,0.1-35.2,0.2-52.8c0-3.1,0.6-6.2,1.1-9.3
		c0.6-4,3.1-6.3,7-6.8h20.8v-22.2h-14.3c-11.2-0.5-22,1-31.3,9c-7.6,6.6-10.1,15.5-10.3,25c-0.4,16.3-0.1,32.6-0.3,48.9
		c0,3.6-0.4,7.2-1.3,10.7c-0.1,0.3-0.2,0.6-0.3,0.9c-1.2,3.2-3.2,5.3-5.6,6.8c-1.2,0.7-2.6,1.3-4.1,1.7c-1.3,0.4-2.4,0.6-3.2,0.9
		c-0.8,0.1-1.5,0.2-2.2,0.3h-8.5v11.8v11.8h8.5c0.7,0.1,1.4,0.1,2.2,0.3c0.8,0.3,1.8,0.6,3.2,0.9c1.5,0.4,2.9,1,4.1,1.7
		c2.3,1.5,4.4,3.6,5.6,6.8c0.1,0.3,0.2,0.6,0.3,0.9c0.9,3.5,1.3,7.1,1.3,10.7c0.2,16.3-0.1,32.6,0.3,48.9c0.2,9.5,2.8,18.4,10.3,25
		c9.3,8.1,20.1,9.5,31.3,9h14.3v-22.2h-20.8C572.8,688.4,570.2,686.1,569.6,682.1z"/>
	<path fill="#58595B" d="M1075.3,583.3c-0.7-0.1-1.4-0.1-2.2-0.3c-0.8-0.3-1.8-0.6-3.2-0.9c-1.5-0.4-2.9-1-4.1-1.7
		c-2.3-1.5-4.4-3.6-5.6-6.8c-0.1-0.3-0.2-0.6-0.3-0.9c-0.9-3.5-1.3-7.1-1.3-10.7c-0.2-16.3,0.1-32.6-0.3-48.9
		c-0.2-9.5-2.8-18.4-10.3-25c-9.3-8.1-20.1-9.5-31.3-9h-14.3v22.2h20.8c3.9,0.5,6.4,2.8,7,6.8c0.5,3.1,1.1,6.2,1.1,9.3
		c0.1,17.6,0,35.2,0.2,52.8c0.1,7.3,1.9,14.2,7.1,19.7c1.8,1.9,3.9,3.6,5.9,5.4c-2,1.8-4.1,3.5-5.9,5.4c-5.2,5.5-7,12.3-7.1,19.7
		c-0.2,17.6-0.1,35.2-0.2,52.8c0,3.1-0.6,6.2-1.1,9.3c-0.6,4-3.1,6.3-7,6.8h-20.8v22.2h14.3c11.2,0.5,22-1,31.3-9
		c7.6-6.6,10.1-15.5,10.3-25c0.4-16.3,0.1-32.6,0.3-48.9c0-3.6,0.4-7.2,1.3-10.7c0.1-0.3,0.2-0.6,0.3-0.9c1.2-3.2,3.2-5.3,5.6-6.8
		c1.2-0.7,2.6-1.3,4.1-1.7c1.3-0.4,2.4-0.6,3.2-0.9c0.8-0.1,1.5-0.2,2.2-0.3h8.5v-11.8v-11.8H1075.3z"/>
	<g>
		<polygon fill="#1DBF73" points="791,612.3 753.7,534.1 721.4,534.1 721.4,662 747.5,662 747.5,575.8 781.5,649.1 800.3,649.1 
			834.3,575.8 834.3,662 860.2,662 860.2,534.1 828.1,534.1 		"/>
		<path fill="#1DBF73" d="M935.3,534.1h-54.3V662h53.2c40.4,0,68.3-26.3,68.3-64C1002.6,560.2,975,534.1,935.3,534.1z M936.1,637.7
			h-26.1v-79.3h24.9c21.9,0,38.4,16.3,38.4,39.8C973.2,621.6,957.5,637.7,936.1,637.7z"/>
		<path fill="#1DBF73" d="M723.3,525.6c-4,2.2-7.9,4.7-11.7,7.2c-7.4,5-14.1,10.3-19.8,15.2c-2.7,2.4-5.2,4.6-7.4,6.7
			c-1.1,0.9-2.1,1.8-3.1,2.7c-3.4,3-6.6,6-9.7,8.8c-17,15.8-29.2,28.9-29.2,28.9l-16-18l-8-8.9l-5.7-6.4c0.6-3.1,2.9-5.7,5.7-7.9
			c1.9-1.5,4-2.7,6.1-3.8c4.1-2.1,7.7-3.2,7.7-3.2l2.7,3.2l6.8,7.9l8,9.3c2.9-3,5.8-5.9,8.6-8.6c3.2-3.1,6.4-6,9.5-8.6
			c2.2-1.9,4.4-3.8,6.6-5.5c2.1-1.6,4.2-3.1,6.5-4.6c-7.8-3.8-17.6-5.9-29-5.9h-54.3V662h28.9v-36.5h25.4c32.5,0,51.2-17.2,51.2-47
			c0-9.9-2.3-18.4-6.7-25.1L723.3,525.6z"/>
	</g>
</g>
</svg>
